<svg width="40" height="40" viewBox="0 0 40 40" fill="none" xmlns="http://www.w3.org/2000/svg">
<path d="M15.5556 0H2.22222C1.63285 0 1.06762 0.234126 0.650874 0.650874C0.234126 1.06762 0 1.63285 0 2.22222V15.5556C0 16.1449 0.234126 16.7102 0.650874 17.1269C1.06762 17.5437 1.63285 17.7778 2.22222 17.7778H15.5556C16.1449 17.7778 16.7102 17.5437 17.1269 17.1269C17.5437 16.7102 17.7778 16.1449 17.7778 15.5556V2.22222C17.7778 1.63285 17.5437 1.06762 17.1269 0.650874C16.7102 0.234126 16.1449 0 15.5556 0ZM13.3333 13.3333H4.44444V4.44444H13.3333V13.3333ZM37.7778 0H24.4444C23.8551 0 23.2898 0.234126 22.8731 0.650874C22.4564 1.06762 22.2222 1.63285 22.2222 2.22222V15.5556C22.2222 16.1449 22.4564 16.7102 22.8731 17.1269C23.2898 17.5437 23.8551 17.7778 24.4444 17.7778H37.7778C38.3671 17.7778 38.9324 17.5437 39.3491 17.1269C39.7659 16.7102 40 16.1449 40 15.5556V2.22222C40 1.63285 39.7659 1.06762 39.3491 0.650874C38.9324 0.234126 38.3671 0 37.7778 0ZM35.5556 13.3333H26.6667V4.44444H35.5556V13.3333ZM15.5556 22.2222H2.22222C1.63285 22.2222 1.06762 22.4564 0.650874 22.8731C0.234126 23.2898 0 23.8551 0 24.4444V37.7778C0 38.3671 0.234126 38.9324 0.650874 39.3491C1.06762 39.7659 1.63285 40 2.22222 40H15.5556C16.1449 40 16.7102 39.7659 17.1269 39.3491C17.5437 38.9324 17.7778 38.3671 17.7778 37.7778V24.4444C17.7778 23.8551 17.5437 23.2898 17.1269 22.8731C16.7102 22.4564 16.1449 22.2222 15.5556 22.2222ZM13.3333 35.5556H4.44444V26.6667H13.3333V35.5556ZM31.1111 22.2222C26.2089 22.2222 22.2222 26.2089 22.2222 31.1111C22.2222 36.0133 26.2089 40 31.1111 40C36.0133 40 40 36.0133 40 31.1111C40 26.2089 36.0133 22.2222 31.1111 22.2222ZM31.1111 35.5556C28.66 35.5556 26.6667 33.5622 26.6667 31.1111C26.6667 28.66 28.66 26.6667 31.1111 26.6667C33.5622 26.6667 35.5556 28.66 35.5556 31.1111C35.5556 33.5622 33.5622 35.5556 31.1111 35.5556Z" fill="black"/>
</svg>
